# xmcd
#
# Track frame offsets:
#	150
#	14157
#	27876
#	38898
#	53364
#	67675
#	80149
#	90723
#	100912
#	116969
#	127848
#	142983
#	154771
#	163846
#	175632
#	188724
#	202605
#	215056
#	223952
#	234668
#
# Disc length: 3289 seconds
#
# Revision: 1
# Processed by: cddbd v1.5.2PL0 Copyright (c) Steve Scherf et al.
# Submitted via: audiograbber 1.83.01
#
DISCID=130cd714
DTITLE=Various Artist - Country Hits Of Yesterday
DYEAR=1970
DGENRE=Country
TTITLE0=Kevin Shegog - The Blue Velvet Band
TTITLE1=Reg Poole - Have I Told You Lately That I Love You
TTITLE2=Hawkin Brothers - Stolen Moments
TTITLE3=Mick Antonio - Can I Sleep In Your Barn
TTITLE4=Bill Mullin - Rockin' Alone
TTITLE5=Nell Hoskins - Have You Ever Been Lonely
TTITLE6=Kevin Shegog - The Maple On The Hill
TTITLE7=Kevin Shegog - I'm Thinking Tonight Of My Blue Eyes
TTITLE8=Kevin Shegog - Nobody's Darlin'
TTITLE9=Dennis Gibbons - The Drovers Dream
TTITLE10=Reg Poole - Nobody's Child
TTITLE11=Kevin Shegog - Grannie's Old Arm Chair
TTITLE12=Hickey Sisters - When My Blue Moon Turns To Gold Again
TTITLE13=Kevin Shegog - One Small Photograph
TTITLE14=Weeb Brothers - Call Of The Bell Bird
TTITLE15=Kevin Riordan - A Broken Engagement
TTITLE16=Ellie Lavelle - Blackboard Of My Heart
TTITLE17=Johnny Greenwood - Are You Mine
TTITLE18=Johnny Greenwood - That Little Kid Sister Of Mine
TTITLE19=Dennis Gibbons - The Blue Tail Fly
EXTD=
EXTT0=
EXTT1=
EXTT2=
EXTT3=
EXTT4=
EXTT5=
EXTT6=
EXTT7=
EXTT8=
EXTT9=
EXTT10=
EXTT11=
EXTT12=
EXTT13=
EXTT14=
EXTT15=
EXTT16=
EXTT17=
EXTT18=
EXTT19=
PLAYORDER=
